PathFileType	4	(X/Y/Z)	c:\Git\powerlifing_model_clean\simulations\HC835B\Session1\HC835B_OGR_0004\marker_experimental.trc
DataRate	CameraRate	NumFrames	NumMarkers	Units	OrigDataRate	OrigDataStartFrame	OrigNumFrames
240.000000	240.000000	4	38	mm	240.000000	54	217
Frame#	Time	RPSI			LPSI			RASI			LASI			RTH1			RTH2			RTH3			RTH4			RSK1			RSK2			RSK3			RSK4			RCAL1			RCAL2			RCAL3			RST			RPT			RTN			RFMB			RSMB			RVMB			RFMH			RSMH			RVMH			RPM			LTH1			LTH2			LTH3			LTH4			LSK1			LSK2			LSK3			LSK4			LCAL1			LCAL2			LCAL3			LFMH			LVMH			
		X1	Y1	Z1	X2	Y2	Z2	X3	Y3	Z3	X4	Y4	Z4	X5	Y5	Z5	X6	Y6	Z6	X7	Y7	Z7	X8	Y8	Z8	X9	Y9	Z9	X10	Y10	Z10	X11	Y11	Z11	X12	Y12	Z12	X13	Y13	Z13	X14	Y14	Z14	X15	Y15	Z15	X16	Y16	Z16	X17	Y17	Z17	X18	Y18	Z18	X19	Y19	Z19	X20	Y20	Z20	X21	Y21	Z21	X22	Y22	Z22	X23	Y23	Z23	X24	Y24	Z24	X25	Y25	Z25	X26	Y26	Z26	X27	Y27	Z27	X28	Y28	Z28	X29	Y29	Z29	X30	Y30	Z30	X31	Y31	Z31	X32	Y32	Z32	X33	Y33	Z33	X34	Y34	Z34	X35	Y35	Z35	X36	Y36	Z36	X37	Y37	Z37	X38	Y38	Z38	

55	0.225	495.0513305664064	1132.580810546875	-300.4858398437501	387.802459716797	1128.531372070313	-304.3096313476563	566.2402343750001	1046.867431640625	-498.5457153320314	316.8325805664063	1047.719970703125	-499.492645263672	614.5371093750001	784.6494140625002	-391.0652160644532	610.3446044921876	768.2178955078127	-449.4915771484376	599.3430175781251	702.8890380859376	-407.3127441406251	583.6889648437501	688.0896606445314	-461.8803710937501	520.1394042968751	310.5392150878907	-218.3842468261719	517.8124389648439	272.0007019042969	-266.8966979980469	509.6872558593751	253.3731689453126	-209.5613098144532	496.7968750000001	218.2968292236329	-256.7771301269532	438.4702758789064	128.2061920166016	-90.95002746582033	403.5728149414064	93.9402542114258	-94.88400268554689	466.948699951172	90.04454803466798	-84.43933105468751	396.5598449707032	97.56125640869143	-164.6551513671875	497.2161254882814	89.90383148193361	-142.1679382324219	414.0901184082032	104.0961303710938	-222.913803100586	420.7456054687501	82.66764068603517	-250.2187500000001	471.261444091797	99.38826751708987	-256.9973144531251	509.0593566894532	56.05095672607423	-179.1880798339844	422.0115051269532	47.9018669128418	-299.3345642089844	478.7889404296876	54.45991897583009	-308.5424804687501	531.7048950195314	38.66538238525391	-252.0832214355469	471.4185791015626	39.94007873535157	-366.0769958496094	235.0271453857422	796.5269165039065	-493.6580200195314	238.8616790771485	809.1074829101565	-553.0023193359376	233.1022644042969	728.4208374023439	-545.0059204101564	252.367172241211	739.7669067382814	-602.1668701171876	280.1195983886719	538.0882568359376	-313.6494445800782	273.5899658203126	484.5610351562501	-312.7822570800782	283.9313354492188	504.7501525878907	-268.0373840332032	292.3575439453126	449.5765991210939	-270.5531311035157	352.0219116210938	513.1842651367189	-118.1238555908203	325.0502319335938	502.4258117675782	-79.97579193115236	383.4992980957032	497.3003540039064	-85.71511077880861	376.5964660644532	288.1003723144532	-153.4931335449219	277.2023010253907	317.2359924316407	-109.0228042602539	
56	0.2291666666666667	495.854461669922	1135.907348632813	-315.5658874511719	388.5033569335939	1131.8623046875	-318.3062744140626	565.8505249023439	1049.650390625	-512.6633300781251	317.1865844726563	1050.833984375	-513.3476562500001	614.0206298828126	787.643005371094	-400.120574951172	609.7872314453126	770.1273193359377	-458.1780090332032	598.3708496093751	705.4774780273439	-414.9052734375001	583.1002807617189	689.7900390625001	-469.0046386718751	521.1459350585939	314.1920471191407	-221.2995605468751	518.7413940429689	275.4706420898438	-269.7453918457032	510.7303771972657	257.0759277343751	-212.3391418457032	497.9944152832032	221.7738800048829	-259.3858642578126	440.1440734863282	132.9551391601563	-93.29135131835939	404.8215942382814	99.07527160644534	-96.60994720458987	468.1008911132814	94.57563781738283	-86.13321685791017	397.9496459960939	101.4008331298828	-166.2868041992188	497.8214721679689	92.92446899414064	-143.6521453857422	415.5478820800782	106.5993270874024	-224.6846008300782	421.7415161132814	84.32503509521486	-251.4744567871094	472.7045288085939	100.4691772460938	-258.8638610839844	509.770233154297	58.00669479370119	-180.2169799804688	422.2441711425782	48.12315750122072	-299.5950317382813	479.1051330566407	53.94193267822267	-309.1179809570313	531.9334716796876	38.73900985717774	-252.3470611572266	471.4270324707032	39.92167282104493	-366.0911865234376	235.3878326416016	800.6697387695315	-509.9708557128907	239.3208007812501	814.0549316406252	-569.0473632812501	233.9131774902344	733.2037353515626	-562.4260253906251	253.2687683105469	745.5089721679689	-619.3399658203126	280.7119140625001	534.6009521484376	-333.9374389648438	273.8352661132813	480.9890441894532	-334.7897949218751	284.4812622070313	499.725799560547	-289.3405761718751	293.4511413574219	444.2672119140626	-294.8251342773438	352.3487854003907	503.4656372070314	-138.6700897216797	325.2424621582032	491.3923950195314	-101.1006774902344	383.7319335937501	486.4225463867189	-106.7303314208985	376.7473754882813	279.7861022949219	-182.83740234375	277.3504028320313	307.3519897460938	-137.708969116211	
57	0.2333333333333333	496.6788024902345	1139.16259765625	-330.7467651367188	389.0723266601564	1135.294067382813	-332.3462524414063	565.4829711914064	1052.690551757813	-526.8430175781251	317.4377441406251	1054.016235351563	-527.5762329101564	613.5570068359376	790.8748779296877	-409.4428710937501	609.0883789062501	772.2524414062502	-467.2153320312501	597.4045410156251	708.5205688476564	-422.6480712890626	582.4047241210939	691.7968750000001	-476.4762268066407	521.9115600585939	318.1305847167969	-224.6823120117188	519.8564453125001	279.2823791503907	-272.8025207519532	511.9087524414064	261.0680236816407	-215.3521728515626	499.3451232910157	225.471664428711	-262.2593078613282	441.8299865722657	138.053466796875	-96.00625610351565	406.0619506835939	104.4894104003907	-98.80727386474612	469.3196411132814	99.3829040527344	-88.14922332763673	399.4200134277345	105.4615554809571	-168.4247741699219	499.0888977050782	96.19864654541018	-145.4834747314453	417.1416015625001	109.0924835205078	-226.2633972167969	422.8598632812501	86.17113494873048	-253.2755432128907	474.3155822753907	101.7861404418946	-261.2100830078126	510.4376525878907	60.12387084960939	-181.4601440429688	422.3980712890626	48.33638381958009	-299.8296813964844	479.4458007812501	53.53934478759767	-309.7754516601563	532.1437377929689	38.9259262084961	-252.6097869873047	471.4531250000001	39.8846549987793	-366.1038513183594	235.6927337646485	804.8565673828127	-526.2882690429689	239.7183990478516	818.918395996094	-585.2214965820314	234.7300872802735	738.1134643554689	-579.5020751953126	254.1481628417969	751.0537719726564	-636.1923828125001	281.3192138671876	530.8738403320314	-354.2552490234376	274.8326416015626	477.3475341796876	-356.8847961425782	285.1499633789063	494.654022216797	-310.8502807617188	294.5794372558594	439.3437500000001	-318.0483703613282	352.6806030273438	493.4527893066407	-159.3955383300782	325.2937622070313	479.8946533203126	-122.5315704345703	383.7507019042969	475.0324707031251	-128.0054168701172	377.5892944335938	271.7655334472657	-212.6716003417969	277.6345214843751	297.5205993652344	-166.1942443847657	
58	0.2375	497.4093627929689	1142.419189453125	-345.8437194824219	389.525360107422	1138.811889648438	-346.4612121582032	565.0720825195314	1055.867065429688	-541.0432128906251	317.6861877441407	1057.152954101563	-541.7876586914064	613.2048339843751	794.3552856445315	-419.0871887207032	608.4218139648439	774.749694824219	-476.503631591797	597.1129150390626	711.6001586914064	-430.8767395019532	581.6513671875001	694.1102294921876	-484.2751464843751	522.8858032226564	322.3657226562501	-228.0518493652344	521.0870361328126	283.1933288574219	-276.1169433593751	513.1296386718751	265.2762756347657	-218.5630187988282	500.8887634277345	229.4425506591797	-265.3854980468751	443.5228271484376	143.3317565917969	-99.09690856933597	407.2743225097657	110.3144454956055	-101.0109176635742	470.5061340332032	104.5567169189453	-90.46401214599611	401.1434936523439	109.7452545166016	-170.6891784667969	500.2974853515626	99.72481536865237	-147.5860595703125	418.6769409179689	111.934326171875	-228.8515930175782	423.9321289062501	87.99266052246095	-255.0062561035157	475.4129943847657	102.3715209960938	-263.2131347656251	511.113739013672	62.4523277282715	-182.8401031494141	422.5912170410157	48.58050918579103	-300.0814514160157	479.8192749023439	53.18341064453126	-310.5445556640626	532.3880004882814	39.1283073425293	-252.9128570556641	471.4555969238282	39.85700988769532	-366.1371765136719	235.8565216064454	809.134948730469	-542.6403198242189	240.1249237060547	823.9511718750002	-601.4349365234376	235.5147857666016	742.8988647460939	-596.5085449218751	255.0990142822266	756.6813964843751	-653.0930786132814	281.8753967285157	526.9549560546876	-374.5065612792969	275.7677001953126	473.4480285644532	-379.0495605468751	285.7463684082032	489.2154541015626	-332.3732910156251	295.8339843750001	434.3109741210939	-341.3740539550782	353.0000610351563	483.1025390625001	-180.43701171875	325.4221496582032	468.2116699218751	-144.2369995117188	383.9079284667969	463.5757141113282	-149.5734405517578	377.9079589843751	263.7062683105469	-241.8936767578126	277.9384765625001	287.5084838867188	-195.3885345458985	
